<?xml version="1.0" standalone="no"?>
<!DOCTYPE svg PUBLIC "-//W3C//DTD SVG 20010904//EN"
 "http://www.w3.org/TR/2001/REC-SVG-20010904/DTD/svg10.dtd">
<svg version="1.0" xmlns="http://www.w3.org/2000/svg"
 width="260.000000pt" height="260.000000pt" viewBox="0 0 260.000000 260.000000"
 preserveAspectRatio="xMidYMid meet">
<metadata>
Created by potrace 1.11, written by Peter Selinger 2001-2013
</metadata>
<g transform="translate(0.000000,260.000000) scale(0.100000,-0.100000)"
fill="#000000" stroke="none">
<path d="M0 1300 l0 -1300 1300 0 1300 0 0 1300 0 1300 -1300 0 -1300 0 0
-1300z m1565 745 c89 -19 161 -55 223 -110 121 -109 166 -250 127 -399 -14
-54 -68 -150 -100 -176 -12 -10 -3 -20 48 -58 124 -94 172 -188 172 -337 0
-82 -3 -97 -33 -157 -38 -78 -91 -128 -178 -169 -114 -55 -157 -59 -634 -59
-258 0 -450 4 -471 10 -58 16 -84 52 -84 115 0 43 5 59 24 79 28 30 77 46 139
46 l42 0 0 490 0 490 -42 0 c-62 0 -111 16 -139 46 -19 20 -24 36 -24 79 0 61
26 99 79 114 17 5 200 10 406 10 295 0 390 -3 445 -14z"/>
<path d="M1090 1624 l0 -186 193 4 c159 3 200 7 237 23 165 68 209 196 100
289 -55 46 -114 56 -332 56 l-198 0 0 -186z"/>
<path d="M1090 1011 l0 -181 258 0 c302 0 357 9 410 65 54 58 39 131 -43 203
-87 76 -126 85 -392 90 l-233 4 0 -181z"/>
</g>
</svg>
